video.FLV
Format                                   : Flash Video
File size                                : 15.7 MiB
Duration                                 : 2mn 27s
Overall bit rate                         : 890 Kbps


Video
Format                                   : AVC
Format/Info                              : Advanced Video Codec
Format profile                           : Main@L3.0
Format settings, CABAC                   : Yes
Format settings, ReFrames                : 3 frames
Format settings, GOP                     : M=1, N=30
Codec ID                                 : 7
Duration                                 : 2mn 27s
Bit rate                                 : 784 Kbps
Width                                    : 640 pixels
Height                                   : 360 pixels
Display aspect ratio                     : 16:9
Frame rate mode                          : Constant
Frame rate                               : 29.970 fps
Color space                              : YUV
Chroma subsampling                       : 4:2:0
Bit depth                                : 8 bits
Scan type                                : Progressive
Bits/(Pixel*Frame)                       : 0.114
Stream size                              : 13.8 MiB (88%)

Audio
Format                                   : AAC
Format/Info                              : Advanced Audio Codec
Format profile                           : LC
Codec ID                                 : 10
Duration                                 : 2mn 27s
Bit rate                                 : 96.7 Kbps
Channel(s)                               : 2 channels
Channel positions                        : Front: L R
Sampling rate                            : 44.1 KHz
Compression mode                         : Lossy
Stream size                              : 1.71 MiB (11%)


Screens: 
http://i.minus.com/iwyzRI75RQ1JS.jpg